<svg viewBox="0 0 640 400" data-background-color="#ffffff" preserveAspectRatio="xMidYMid meet" height="400" width="640" xmlns="http://www.w3.org/2000/svg" xmlns:xlink="http://www.w3.org/1999/xlink"><rect width="640" height="400" x="0" y="0" opacity="1" fill="#ffffff" data-fill-palette-color="background" id="background"></rect><g id="tight-bounds" transform="matrix(1,0,0,1,180.14,60.139999999999986)"><svg viewBox="0 0 279.72 279.72" height="279.72" width="279.72"><g><svg viewBox="0 0 279.72 279.72" height="279.72" width="279.72"><g><svg viewBox="0 0 279.72 279.72" height="279.72" width="279.72"><g><svg viewBox="0 0 279.72 279.72" height="279.72" width="279.72"><g><svg viewBox="0 0 279.72 279.72" height="279.72" width="279.72"><g transform="matrix(1,0,0,1,57.58770202963662,57.44670465270788)"><svg viewBox="0 0 164.5445959407268 164.82659069458427" height="164.82659069458427" width="164.5445959407268"><g><circle r="82.41329534729213" cx="82.41329534729213" cy="82.41329534729213" fill="#0074d9" data-fill-palette-color="accent"></circle><svg xmlns="http://www.w3.org/2000/svg" xmlns:xlink="http://www.w3.org/1999/xlink" version="1.1" x="24.66362432022881" y="24.66362432022881" viewBox="5.5 7.5 90 84" enable-background="new 0 0 100 100" xml:space="preserve" height="115.49934205412666" width="115.21734730026917" class="icon-_l-0" data-fill-palette-color="quaternary" id="_l-0"><g fill="#ffffff" data-fill-palette-color="quaternary"><polygon points="43.5,29.609 43.39,29.5 41.976,29.5 43.5,31.031  " fill="#ffffff" data-fill-palette-color="quaternary"></polygon><polygon points="43.5,38.145 34.906,29.5 33.491,29.5 43.5,39.566  " fill="#ffffff" data-fill-palette-color="quaternary"></polygon><polygon points="36.76,65.5 5.5,34.063 5.5,35.484 35.346,65.5  " fill="#ffffff" data-fill-palette-color="quaternary"></polygon><polygon points="33.932,65.5 5.5,36.906 5.5,38.328 32.518,65.5  " fill="#ffffff" data-fill-palette-color="quaternary"></polygon><polygon points="43.5,55.213 17.935,29.5 16.521,29.5 43.5,56.635  " fill="#ffffff" data-fill-palette-color="quaternary"></polygon><polygon points="43.5,35.299 37.734,29.5 36.32,29.5 43.5,36.721  " fill="#ffffff" data-fill-palette-color="quaternary"></polygon><polygon points="42.417,65.5 6.621,29.5 5.5,29.5 5.5,29.795 41.002,65.5  " fill="#ffffff" data-fill-palette-color="quaternary"></polygon><polygon points="43.5,40.988 32.077,29.5 30.663,29.5 43.5,42.41  " fill="#ffffff" data-fill-palette-color="quaternary"></polygon><polygon points="43.5,32.455 40.562,29.5 39.148,29.5 43.5,33.877  " fill="#ffffff" data-fill-palette-color="quaternary"></polygon><polygon points="14.134,65.5 5.5,56.799 5.5,58.221 12.721,65.5  " fill="#ffffff" data-fill-palette-color="quaternary"></polygon><polygon points="43.5,58.057 15.106,29.5 13.692,29.5 43.5,59.479  " fill="#ffffff" data-fill-palette-color="quaternary"></polygon><polygon points="8.035,29.5 43.5,65.168 43.5,63.744 9.449,29.5  " fill="#ffffff" data-fill-palette-color="quaternary"></polygon><polygon points="43.5,60.9 12.278,29.5 10.863,29.5 43.5,62.322  " fill="#ffffff" data-fill-palette-color="quaternary"></polygon><polygon points="39.588,65.5 5.5,31.219 5.5,32.641 38.174,65.5  " fill="#ffffff" data-fill-palette-color="quaternary"></polygon><polygon points="22.616,65.5 5.5,48.281 5.5,49.699 21.202,65.5  " fill="#ffffff" data-fill-palette-color="quaternary"></polygon><polygon points="25.445,65.5 5.5,45.439 5.5,46.861 24.031,65.5  " fill="#ffffff" data-fill-palette-color="quaternary"></polygon><polygon points="43.5,43.834 29.248,29.5 27.834,29.5 43.5,45.256  " fill="#ffffff" data-fill-palette-color="quaternary"></polygon><polygon points="43.5,49.523 23.591,29.5 22.177,29.5 43.5,50.945  " fill="#ffffff" data-fill-palette-color="quaternary"></polygon><polygon points="16.961,65.5 5.5,53.957 5.5,55.377 15.548,65.5  " fill="#ffffff" data-fill-palette-color="quaternary"></polygon><polygon points="19.789,65.5 5.5,51.119 5.5,52.537 18.375,65.5  " fill="#ffffff" data-fill-palette-color="quaternary"></polygon><polygon points="43.5,52.367 20.763,29.5 19.349,29.5 43.5,53.789  " fill="#ffffff" data-fill-palette-color="quaternary"></polygon><polygon points="11.307,65.5 5.5,59.643 5.5,61.066 9.893,65.5  " fill="#ffffff" data-fill-palette-color="quaternary"></polygon><polygon points="8.479,65.5 5.5,62.492 5.5,63.918 7.065,65.5  " fill="#ffffff" data-fill-palette-color="quaternary"></polygon><polygon points="31.104,65.5 5.5,39.75 5.5,41.174 29.689,65.5  " fill="#ffffff" data-fill-palette-color="quaternary"></polygon><polygon points="28.273,65.5 5.5,42.596 5.5,44.018 26.859,65.5  " fill="#ffffff" data-fill-palette-color="quaternary"></polygon><polygon points="43.5,46.678 26.42,29.5 25.006,29.5 43.5,48.1  " fill="#ffffff" data-fill-palette-color="quaternary"></polygon><rect x="5.5" y="17.5" width="67" height="6" fill="#ffffff" data-fill-palette-color="quaternary"></rect><rect x="49.5" y="29.5" width="46" height="4" fill="#ffffff" data-fill-palette-color="quaternary"></rect><rect x="5.5" y="87.5" width="45" height="4" fill="#ffffff" data-fill-palette-color="quaternary"></rect><rect x="5.5" y="71.5" width="83" height="4" fill="#ffffff" data-fill-palette-color="quaternary"></rect><rect x="5.5" y="79.5" width="90" height="4" fill="#ffffff" data-fill-palette-color="quaternary"></rect><rect x="49.5" y="53.5" width="46" height="4" fill="#ffffff" data-fill-palette-color="quaternary"></rect><rect x="49.5" y="37.5" width="29" height="4" fill="#ffffff" data-fill-palette-color="quaternary"></rect><rect x="49.5" y="61.5" width="29" height="4" fill="#ffffff" data-fill-palette-color="quaternary"></rect><rect x="49.5" y="45.5" width="39" height="4" fill="#ffffff" data-fill-palette-color="quaternary"></rect><rect x="5.5" y="7.5" width="90" height="6" fill="#ffffff" data-fill-palette-color="quaternary"></rect></g></svg></g></svg></g><path d="M38.152 93.861l-27.937 8.747 19.485 7.519 1.428-2.515 1.495 0.577-2.859 7.41-1.496-0.577 0.655-2.879-22.685-8.754-1.459 2.569-1.485-0.574 1.869-4.845 27.945-8.766-19.486-7.519-1.433 2.502-1.486-0.574 2.841-7.362 1.486 0.573-0.615 2.807 24.577 9.484zM54.623 62.187v0l1.631-0.052c0.119 2.679-0.24 4.886-1.079 6.621v0c-0.183 0.383-0.402 0.729-0.654 1.038v0c-1.751 2.133-3.849 3.314-6.297 3.545v0c-2.407 0.246-4.674-0.504-6.801-2.25v0c-2.112-1.733-3.408-3.843-3.888-6.327v0c-0.508-2.718 0.142-5.177 1.948-7.378v0c1.253-1.526 2.857-2.362 4.813-2.506v0c2.053-0.178 3.997 0.486 5.833 1.992v0l0.051 1.184-7.099 10.04c1.78 1.435 3.661 2.021 5.643 1.758v0c1.759-0.245 3.185-1.034 4.279-2.367 1.098-1.338 1.638-3.104 1.62-5.298zM41.8 66.872v0l5.452-8.032c-1.666-1.254-3.28-1.542-4.842-0.865v0c-0.558 0.242-1.102 0.687-1.634 1.336-0.536 0.653-0.853 1.364-0.951 2.133-0.097 0.769-0.054 1.504 0.131 2.207v0c0.348 1.345 0.963 2.418 1.844 3.221zM85.161 25.123l3.182 17.583-2.215 1.375-11.049-8.792 2.846 13.887-2.223 1.381-14.376-10.631-2.049 0.759-0.824-1.328 6.601-4.099 0.824 1.327-1.631 1.527 11.547 8.805-2.908-13.084-0.944-0.501-2.264 0.893-0.824-1.327 6.971-4.33 0.824 1.327-1.734 1.591 11.297 8.961c0 0-1.007-4.736-3.021-14.208v0l-2.035 0.857-0.824-1.327 5.558-3.452 0.824 1.327zM107.414 28.056l0.94-0.253c0.681 2.534 2.573 3.384 5.675 2.549v0c1.175-0.316 2.046-0.83 2.611-1.542v0c0.514-0.642 0.675-1.319 0.483-2.031v0c-0.204-0.758-0.55-1.291-1.04-1.601v0c-0.956-0.611-2.197-0.971-3.725-1.078-1.528-0.107-2.7-0.289-3.518-0.545-0.818-0.256-1.491-0.572-2.02-0.949v0c-0.914-0.637-1.499-1.432-1.755-2.385-0.255-0.947-0.284-1.772-0.088-2.476 0.196-0.704 0.527-1.346 0.994-1.927v0c0.997-1.214 2.309-2.039 3.935-2.477v0c1.946-0.523 3.763-0.55 5.451-0.079v0l0.522 3.62-0.979 0.263c-0.513-1.907-2.036-2.52-4.57-1.838v0c-1.097 0.295-1.875 0.735-2.334 1.321-0.452 0.584-0.592 1.196-0.42 1.836v0c0.381 1.417 2.308 2.279 5.779 2.584v0c3.252 0.295 5.303 1.27 6.154 2.925v0c0.225 0.472 0.429 1.047 0.611 1.726 0.184 0.686 0.145 1.411-0.118 2.175-0.272 0.759-0.687 1.428-1.247 2.006v0c-1.087 1.14-2.476 1.937-4.167 2.392v0c-1.659 0.446-3.297 0.54-4.914 0.281v0c-0.714-0.102-1.358-0.272-1.934-0.509v0zM141.528 2.455l6.609 22.376 5.982-15.334-0.376 2.484-2.625-8.819-2.315-0.608 0.117-1.588 8.781 0.648-0.097 1.589-2.773 0.233 5.698 22.177c0.799-1.731 1.552-3.483 2.259-5.255v0l4.181-10.626c0.706-1.758 1.459-3.503 2.258-5.234v0l-2.68-0.635 0.118-1.589 7.212 0.532-0.117 1.589-2.11 0.21-11.028 25.673-2.023-0.149-4.672-17.473 0.896 0.269-6.583 16.44-2.033-0.15-8.402-27.034-2.103-0.593 0.118-1.588 8.214 0.606 0.015 1.598zM188.28 26.889v0c0.582-1.325 1.351-2.453 2.307-3.385 0.952-0.941 1.993-1.636 3.121-2.086v0c2.341-0.958 4.689-0.921 7.041 0.113v0c2.731 1.199 4.51 2.949 5.34 5.248v0c0.781 2.19 0.623 4.535-0.476 7.036v0c-1.227 2.792-3.053 4.697-5.479 5.715v0c-2.346 0.986-4.702 0.959-7.067-0.079v0c-2.7-1.186-4.47-2.957-5.311-5.314v0c-0.798-2.219-0.623-4.635 0.524-7.248zM194.952 23.682c-0.717 0.387-1.367 0.925-1.95 1.614-0.583 0.689-1.079 1.498-1.487 2.427-0.405 0.923-0.696 1.87-0.871 2.841-0.169 0.974-0.18 1.897-0.03 2.768v0c0.337 1.906 1.438 3.268 3.301 4.087v0c1.746 0.767 3.355 0.787 4.827 0.059v0c1.448-0.708 2.593-2.019 3.433-3.932v0c1.493-3.399 1.526-6.114 0.098-8.144v0c-0.534-0.752-1.293-1.344-2.278-1.776-0.991-0.435-1.898-0.631-2.722-0.587-0.828 0.035-1.602 0.249-2.321 0.643zM217.107 50.91l8.726-10.554-1.575-1.868 0.996-1.204 5.078 2.422-3.057 3.698c4.258-0.63 6.951-0.479 8.076 0.452v0c0.917 0.758 1.458 1.824 1.622 3.196v0l-2.69 1.725-0.68-0.562c0.388-0.469 0.314-1.123-0.222-1.961v0c-0.151-0.221-0.328-0.416-0.531-0.583v0c-1.027-0.849-3.353-1.039-6.978-0.571v0l-6.412 7.756 2.592 2.708-0.996 1.204-7.075-5.85 0.996-1.204zM256.156 67.714v0c0.907 1.28 1.558 2.733 1.955 4.358v0l7.881-5.581-1.193-2.685 1.241-0.88 4.566 4.026-23.079 16.344c-0.464 0.328-0.512 0.752-0.144 1.271 0.367 0.519 0.987 1.054 1.857 1.605v0l-1.22 1.349c-1.807-0.925-2.966-1.749-3.478-2.471v0c-0.747-1.054-0.892-1.991-0.437-2.811v0c0.165-0.282 0.415-0.543 0.752-0.781v0c-1.217-0.29-2.283-0.766-3.198-1.427-0.916-0.661-1.704-1.458-2.364-2.39-0.664-0.938-1.126-1.97-1.385-3.097-0.255-1.12-0.256-2.21-0.002-3.267v0c0.492-2.055 1.927-3.925 4.306-5.61v0c2.268-1.606 4.653-2.288 7.153-2.045v0c2.779 0.261 5.042 1.625 6.789 4.092zM242.397 77.457v0c0.731 1.032 2.119 1.963 4.166 2.793v0l8.725-6.179c0.55-1.715 0.145-3.534-1.215-5.454v0c-1.051-1.485-2.502-2.264-4.352-2.337v0c-1.747-0.056-3.514 0.549-5.302 1.816v0c-1.628 1.153-2.677 2.509-3.148 4.068v0c-0.527 1.724-0.152 3.489 1.126 5.293zM248.381 101.464l0.31 0.923c-1.167 0.391-1.577 1.103-1.232 2.135v0c0.209 0.622 0.755 1.049 1.639 1.281v0c0.246 0.053 0.48 0.081 0.702 0.085v0l5.092 0.507c8.004-7.1 12.525-11.08 13.563-11.942v0l-0.409-2.591 1.481-0.497 2.671 7.964-1.481 0.496-1.156-2.073-10.36 8.985 13.869 1.19-0.476-2.504 1.481-0.497 2.352 7.011-1.482 0.497-1.232-2.304-23.392-2.116c-0.947 0.025-1.822-0.138-2.625-0.489v0c-1.564-0.666-2.477-1.388-2.737-2.164v0c-0.383-1.141-0.511-2.375-0.385-3.701v0zM29.077 178.825l3.241 10.434-2.565 1.009-0.229-0.737 1.508-0.925-1.086-3.497-10.482 3.256 0.376 1.859-0.698 0.217-1.589-5.115 0.698-0.217 0.737 1.725 10.482-3.255-1.083-3.488-1.773 0.073-0.225-0.727zM24.704 193.701v0c0.606-0.251 1.215-0.38 1.828-0.385 0.61-0.012 1.172 0.089 1.684 0.3v0c1.074 0.418 1.837 1.171 2.288 2.258v0c0.521 1.255 0.553 2.392 0.096 3.408v0c-0.432 0.97-1.223 1.694-2.372 2.171v0c-1.287 0.534-2.488 0.586-3.604 0.156v0c-1.083-0.422-1.85-1.176-2.301-2.263v0c-0.516-1.243-0.542-2.382-0.077-3.417v0c0.433-0.985 1.252-1.728 2.458-2.228zM27.908 194.754c-0.357-0.101-0.738-0.129-1.144-0.085-0.415 0.041-0.835 0.149-1.26 0.325-0.425 0.176-0.819 0.399-1.184 0.667-0.358 0.266-0.651 0.567-0.878 0.903v0c-0.494 0.732-0.564 1.526-0.208 2.382v0c0.334 0.806 0.859 1.32 1.574 1.543v0c0.7 0.222 1.49 0.15 2.371-0.215v0c1.568-0.651 2.435-1.534 2.601-2.65v0c0.063-0.414-0.001-0.849-0.19-1.305-0.187-0.45-0.423-0.798-0.709-1.046-0.286-0.247-0.61-0.42-0.973-0.519zM32.605 203.434l-4.339 2.164c-1.023 0.51-1.327 1.18-0.914 2.009v0c0.217 0.436 0.607 0.77 1.17 1.004v0l-0.3 0.671c-0.574-0.258-1.035-0.53-1.383-0.818-0.341-0.291-0.583-0.578-0.725-0.863-0.139-0.278-0.214-0.581-0.226-0.907-0.009-0.321 0.058-0.626 0.2-0.916v0c0.276-0.568 0.822-1.056 1.639-1.464v0l4.258-2.124-0.485-0.971 0.672-0.335 0.711 0.858 1.035-0.516 1.361 0.454 0.167 0.336-1.942 0.969 1.263 2.533-0.899 0.448zM32.704 216.505l-0.621 0.529c-0.785-0.518-1.27-0.938-1.455-1.261v0c-0.412-0.723-0.312-1.258 0.299-1.606v0l0.238-0.136c-0.146-0.01-0.408-0.114-0.785-0.312-0.377-0.198-0.653-0.36-0.826-0.486v0c-0.422-0.304-0.696-0.565-0.819-0.783-0.121-0.212-0.212-0.393-0.275-0.544-0.069-0.148-0.118-0.31-0.149-0.487-0.037-0.174-0.05-0.361-0.04-0.561 0.008-0.191 0.049-0.386 0.123-0.584v0c0.173-0.433 0.518-0.797 1.036-1.092v0c0.705-0.402 1.338-0.432 1.898-0.089v0c0.366 0.219 0.673 0.492 0.922 0.817 0.251 0.332 0.471 0.635 0.658 0.91v0c0.365 0.531 0.713 1.073 1.042 1.624v0l1.569-0.894c0.429-0.244 0.685-0.464 0.768-0.66v0c0.149-0.326 0.113-0.683-0.108-1.071v0c-0.492-0.864-1.258-1.552-2.297-2.064v0l0.406-0.804c1.439 0.721 2.419 1.54 2.941 2.457v0c0.455 0.799 0.555 1.493 0.299 2.083v0c-0.193 0.453-0.605 0.858-1.233 1.216v0l-3.922 2.235c-0.37 0.211-0.539 0.4-0.505 0.568v0c0.009 0.057 0.037 0.127 0.084 0.209v0c0.11 0.194 0.361 0.456 0.752 0.786zM31.844 213.644l1.48-0.843c-0.856-1.38-1.513-2.204-1.969-2.474v0c-0.35-0.205-0.719-0.197-1.108 0.024v0c-0.558 0.318-0.778 0.731-0.659 1.24v0c0.032 0.138 0.096 0.292 0.193 0.462 0.1 0.176 0.248 0.361 0.444 0.553 0.198 0.183 0.402 0.343 0.612 0.48v0c0.393 0.266 0.729 0.453 1.007 0.558zM45.412 212.204l-11.246 7.193 0.425 1.041-0.598 0.383-1.946-3.043 0.598-0.382 0.772 0.831 9.947-6.363-0.422-1.054 0.59-0.378zM52.946 224.096v0c0.731 0.905 1.288 1.824 1.67 2.759v0c0.163 0.416 0.273 0.784 0.33 1.103v0l-1.904 1.291-0.357-0.441c0.494-0.4 0.691-0.963 0.59-1.691v0c-0.101-0.77-0.515-1.605-1.242-2.504v0c-0.948-1.173-2.122-1.824-3.522-1.953v0c-1.411-0.121-2.71 0.3-3.899 1.26v0c-1.257 1.016-2.04 2.232-2.348 3.646v0c-0.206 0.949-0.13 1.883 0.23 2.802v0c0.181 0.471 0.465 0.946 0.851 1.424 0.383 0.473 0.752 0.871 1.108 1.192 0.35 0.326 0.684 0.556 1.001 0.691v0c0.616 0.267 1.216 0.165 1.8-0.307v0l0.357 0.441-1.643 1.485c-1.072-0.412-2.218-1.372-3.438-2.881v0c-1.343-1.662-1.936-3.379-1.777-5.151v0c0.155-1.691 0.961-3.125 2.418-4.302v0c1.609-1.301 3.374-1.802 5.294-1.502v0c1.784 0.271 3.278 1.15 4.481 2.638zM50.104 234.565v0c0.47-0.458 0.989-0.802 1.556-1.034 0.563-0.236 1.121-0.351 1.676-0.343v0c1.153-0.009 2.139 0.409 2.96 1.252v0c0.948 0.974 1.398 2.018 1.35 3.131v0c-0.043 1.061-0.51 2.026-1.401 2.894v0c-0.998 0.972-2.095 1.464-3.291 1.477v0c-1.162 0.008-2.154-0.409-2.975-1.252v0c-0.939-0.964-1.384-2.013-1.335-3.146v0c0.038-1.075 0.525-2.069 1.46-2.979zM53.471 234.359c-0.369 0.038-0.734 0.153-1.095 0.344-0.371 0.191-0.721 0.447-1.051 0.768-0.329 0.321-0.614 0.673-0.853 1.058-0.235 0.379-0.395 0.767-0.482 1.162v0c-0.188 0.863 0.041 1.627 0.687 2.291v0c0.609 0.625 1.286 0.909 2.033 0.852v0c0.732-0.052 1.44-0.411 2.124-1.077v0c1.216-1.184 1.695-2.326 1.437-3.424v0c-0.095-0.408-0.315-0.788-0.659-1.142-0.34-0.349-0.688-0.585-1.045-0.71-0.357-0.124-0.722-0.165-1.096-0.122zM65.053 243.988l-7.377 3.626-0.895-0.779 2.547-7.827-0.455-0.652 0.466-0.535 2.518 2.19-0.466 0.536-0.877-0.507-2.132 6.346 5.909-3.115-0.635-0.754 0.466-0.535 2.105 1.83-0.466 0.536zM67.995 253.363v0l0.047 0.739c-1.217 0.099-2.227-0.027-3.031-0.378v0c-0.175-0.083-0.335-0.18-0.48-0.291v0c-0.999-0.764-1.572-1.701-1.72-2.811v0c-0.15-1.094 0.155-2.138 0.915-3.131v0c0.76-0.993 1.702-1.618 2.827-1.874v0c1.232-0.275 2.364-0.018 3.394 0.772v0c0.714 0.547 1.118 1.265 1.213 2.154v0c0.115 0.94-0.154 1.837-0.807 2.691v0l-0.545 0.043-4.693-3.081c-0.622 0.835-0.859 1.701-0.711 2.598v0c0.14 0.797 0.524 1.435 1.152 1.917 0.628 0.481 1.441 0.698 2.439 0.652zM65.657 247.589v0l3.744 2.367c0.547-0.782 0.654-1.522 0.32-2.22v0c-0.121-0.254-0.331-0.496-0.632-0.727-0.306-0.234-0.635-0.367-0.986-0.397-0.357-0.035-0.693-0.002-1.007 0.098v0c-0.604 0.177-1.083 0.47-1.439 0.879zM69.749 255.848l3.453-5.195-0.8-0.775 0.394-0.592 2.417 0.852-1.213 1.825c1.901-0.49 3.128-0.552 3.68-0.185v0c0.456 0.303 0.751 0.763 0.885 1.38v0l-1.141 0.911-0.329-0.219c0.157-0.237 0.093-0.531-0.193-0.884v0c-0.083-0.096-0.172-0.175-0.267-0.238v0c-0.507-0.337-1.57-0.313-3.191 0.071v0l-2.538 3.819 1.299 1.106-0.394 0.592-3.48-2.314 0.393-0.591zM81.953 262.961l-0.273 0.769c-0.939-0.055-1.569-0.177-1.89-0.365v0c-0.718-0.42-0.9-0.933-0.545-1.54v0l0.138-0.236c-0.131 0.064-0.41 0.105-0.836 0.122-0.425 0.018-0.745 0.015-0.958-0.008v0c-0.518-0.052-0.885-0.141-1.101-0.267-0.21-0.123-0.38-0.234-0.51-0.333-0.133-0.094-0.258-0.209-0.373-0.348-0.119-0.132-0.224-0.287-0.315-0.466-0.089-0.169-0.151-0.358-0.186-0.566v0c-0.067-0.462 0.05-0.95 0.35-1.464v0c0.409-0.701 0.942-1.043 1.599-1.028v0c0.427 0.007 0.829 0.089 1.207 0.247 0.383 0.161 0.725 0.314 1.025 0.458v0c0.582 0.277 1.154 0.572 1.715 0.885v0l0.911-1.559c0.249-0.426 0.361-0.745 0.335-0.956v0c-0.034-0.357-0.244-0.648-0.629-0.873v0c-0.858-0.502-1.866-0.714-3.023-0.638v0l-0.05-0.899c1.606-0.095 2.865 0.123 3.776 0.656v0c0.794 0.464 1.228 1.015 1.301 1.653v0c0.059 0.489-0.094 1.046-0.459 1.671v0l-2.277 3.897c-0.215 0.368-0.266 0.616-0.154 0.745v0c0.036 0.045 0.096 0.091 0.178 0.138v0c0.193 0.113 0.541 0.214 1.044 0.305zM79.777 260.914l0.86-1.471c-1.432-0.766-2.413-1.152-2.943-1.156v0c-0.406-0.002-0.722 0.189-0.947 0.575v0c-0.324 0.555-0.308 1.022 0.049 1.403v0c0.096 0.103 0.229 0.204 0.399 0.303 0.175 0.102 0.395 0.188 0.66 0.257 0.263 0.06 0.52 0.096 0.77 0.109v0c0.474 0.034 0.857 0.027 1.152-0.02zM93.096 261.773l-1.002-0.493c0.052 0.508-0.066 1.053-0.352 1.636v0c-0.4 0.813-1.165 1.334-2.295 1.561v0c-0.501 0.1-1.038 0.126-1.61 0.079v0l-1.402-0.136c-0.666-0.071-1.055-0.085-1.166-0.043-0.112 0.043-0.179 0.089-0.204 0.137-0.027 0.055-0.026 0.115 0.001 0.182 0.031 0.075 0.093 0.163 0.188 0.262v0c0.237 0.237 0.611 0.482 1.121 0.732 0.504 0.248 0.965 0.505 1.384 0.772 0.416 0.273 0.757 0.568 1.022 0.887v0c0.57 0.695 0.656 1.446 0.259 2.253v0c-0.266 0.54-0.726 0.939-1.38 1.197v0c-0.905 0.354-1.953 0.369-3.144 0.047v0c-0.354-0.091-0.726-0.233-1.114-0.423-0.388-0.191-0.765-0.429-1.13-0.714-0.368-0.279-0.66-0.581-0.877-0.907v0c-0.464-0.681-0.517-1.385-0.158-2.113v0c0.278-0.564 0.731-0.88 1.359-0.947v0l0.649-0.055c0.175-0.004 0.357 0.017 0.544 0.065 0.188 0.047 0.382 0.09 0.582 0.128v0c-0.501-0.375-0.776-0.781-0.825-1.22v0c-0.013-0.157 0.012-0.299 0.075-0.427 0.066-0.133 0.148-0.232 0.247-0.296 0.093-0.067 0.231-0.116 0.412-0.148 0.178-0.025 0.413-0.034 0.703-0.027v0l1.135 0.015c-0.441-0.33-0.784-0.774-1.03-1.331v0c-0.341-0.778-0.293-1.61 0.143-2.496v0c0.418-0.85 1.149-1.386 2.195-1.611v0c0.921-0.202 1.779-0.108 2.574 0.283 0.795 0.391 1.391 0.918 1.788 1.581v0c0.496-0.073 1.195 0.045 2.098 0.354v0l0.093 0.339zM82.849 266.929c-0.099 0.125-0.202 0.296-0.31 0.514-0.104 0.212-0.12 0.45-0.045 0.713 0.068 0.26 0.2 0.498 0.394 0.714v0c0.32 0.361 0.735 0.667 1.245 0.917 0.504 0.248 0.91 0.395 1.218 0.442 0.306 0.052 0.598 0.049 0.876-0.01v0c0.616-0.119 1.057-0.448 1.323-0.989v0c0.337-0.686 0.045-1.308-0.879-1.868v0c-0.267-0.162-0.555-0.319-0.865-0.471v0c-0.88-0.433-1.708-0.52-2.483-0.26v0c-0.211 0.077-0.369 0.176-0.474 0.298zM87.225 259.529v0c-0.232 0.195-0.437 0.475-0.617 0.838-0.176 0.358-0.275 0.697-0.297 1.018-0.028 0.318 0.005 0.617 0.101 0.898v0c0.191 0.561 0.581 0.987 1.169 1.276v0c0.771 0.379 1.479 0.325 2.127-0.163v0c0.241-0.183 0.449-0.454 0.625-0.812 0.173-0.352 0.274-0.694 0.302-1.027 0.034-0.33 0.005-0.638-0.087-0.925v0c-0.182-0.595-0.565-1.035-1.147-1.321v0c-0.819-0.403-1.545-0.33-2.176 0.218zM99.05 269.867v0l0.243 0.7c-1.146 0.421-2.153 0.57-3.022 0.447v0c-0.191-0.033-0.371-0.083-0.54-0.152v0c-1.167-0.469-1.97-1.218-2.41-2.247v0c-0.438-1.014-0.424-2.102 0.043-3.262v0c0.466-1.161 1.207-2.015 2.221-2.562v0c1.114-0.595 2.273-0.65 3.478-0.166v0c0.835 0.335 1.416 0.919 1.745 1.751v0c0.363 0.875 0.344 1.811-0.057 2.808v0l-0.513 0.188-5.347-1.712c-0.376 0.971-0.372 1.869 0.011 2.694v0c0.348 0.73 0.889 1.243 1.623 1.538 0.734 0.295 1.576 0.287 2.525-0.025zM95.25 264.93v0l4.242 1.278c0.318-0.9 0.222-1.642-0.286-2.225v0c-0.184-0.213-0.452-0.389-0.804-0.53-0.358-0.144-0.71-0.183-1.056-0.119-0.353 0.062-0.668 0.184-0.945 0.364v0c-0.534 0.332-0.918 0.743-1.151 1.232zM113.725 271.04l-0.011-0.938-3.214-0.86-1.312 4.899 1.832 0.69-0.189 0.706-4.694-1.257 0.189-0.705 1.304 0.149 2.867-10.71-1.205-0.522 0.189-0.705 8.437 2.258-0.472 2.509-0.725-0.194-0.06-1.581-4.635-1.24-1.256 4.694 3.214 0.86 0.478-0.807 0.52 0.139-0.737 2.754zM117.394 272.851v0c0.119-0.645 0.343-1.226 0.672-1.743 0.323-0.518 0.713-0.934 1.17-1.248v0c0.936-0.673 1.982-0.903 3.139-0.689v0c1.337 0.247 2.307 0.839 2.911 1.776v0c0.578 0.891 0.754 1.948 0.528 3.171v0c-0.253 1.37-0.864 2.405-1.832 3.107v0c-0.944 0.678-1.994 0.911-3.151 0.697v0c-1.323-0.245-2.292-0.843-2.908-1.796v0c-0.59-0.9-0.767-1.992-0.529-3.275zM120.023 270.737c-0.279 0.244-0.511 0.549-0.695 0.914-0.192 0.37-0.33 0.781-0.414 1.234-0.084 0.452-0.112 0.904-0.085 1.356 0.028 0.445 0.121 0.854 0.278 1.227v0c0.345 0.813 0.973 1.304 1.884 1.473v0c0.858 0.159 1.575-0.001 2.152-0.479v0c0.567-0.466 0.938-1.168 1.111-2.106v0c0.308-1.669 0.04-2.878-0.805-3.625v0c-0.313-0.278-0.712-0.462-1.198-0.551-0.479-0.088-0.9-0.08-1.263 0.024-0.363 0.105-0.685 0.283-0.965 0.533zM127.733 277.883l0.676-6.202-1.067-0.32 0.077-0.706 2.539-0.356-0.238 2.178c1.463-1.31 2.523-1.929 3.182-1.857v0c0.545 0.059 1.018 0.332 1.421 0.819v0l-0.594 1.333-0.393-0.043c0.031-0.282-0.162-0.514-0.578-0.696v0c-0.117-0.047-0.233-0.076-0.347-0.089v0c-0.605-0.066-1.538 0.444-2.8 1.532v0l-0.497 4.558 1.662 0.385-0.077 0.706-4.154-0.453 0.077-0.706zM140.825 266.821l10.924-0.13 0.236 2.747-0.771 0.009-0.456-1.709-3.662 0.043 0.13 10.975 1.889 0.17 0.008 0.731-5.355 0.063-0.009-0.73 1.864-0.215-0.13-10.975-3.651 0.043-0.436 1.72-0.761 0.009zM158.354 271.342v0c-0.861 0.092-1.716 0.49-2.566 1.193v0l0.613 5.719 1.111 0.085 0.075 0.706-3.58 0.384-0.076-0.706 1.078-0.32-1.258-11.74-1.122-0.094-0.074-0.696 2.424-0.892 0.712 6.647c0.53-0.451 1.058-0.793 1.583-1.027 0.533-0.234 0.994-0.372 1.384-0.414 0.383-0.041 0.735-0.024 1.057 0.051 0.314 0.075 0.594 0.212 0.839 0.41v0c0.5 0.416 0.796 1.054 0.889 1.914v0l0.545 5.094 1.111 0.085 0.076 0.706-3.581 0.383-0.075-0.706 1.078-0.319-0.529-4.932c-0.121-1.13-0.693-1.64-1.714-1.531zM171.017 275.018v0l0.58 0.462c-0.745 0.968-1.517 1.631-2.318 1.99v0c-0.179 0.074-0.358 0.127-0.538 0.16v0c-1.237 0.226-2.316 0.02-3.237-0.616v0c-0.911-0.624-1.479-1.552-1.704-2.782v0c-0.225-1.231-0.054-2.348 0.513-3.352v0c0.625-1.097 1.576-1.762 2.853-1.995v0c0.885-0.161 1.688 0.022 2.41 0.55v0c0.773 0.546 1.257 1.348 1.449 2.406v0l-0.333 0.432-5.436 1.404c0.2 1.022 0.682 1.78 1.446 2.273v0c0.684 0.432 1.415 0.577 2.193 0.435 0.778-0.142 1.486-0.598 2.122-1.367zM165.17 272.868v0l4.27-1.181c-0.211-0.931-0.687-1.507-1.429-1.729v0c-0.269-0.082-0.59-0.088-0.962-0.021-0.379 0.069-0.698 0.224-0.957 0.464-0.265 0.241-0.467 0.511-0.605 0.811v0c-0.275 0.566-0.38 1.118-0.317 1.656zM183.926 268l-0.517-0.774-3.013 0.936 1.535 4.94 4.562-1.417 0.14-1.637 0.62-0.192 0.484 2.516-8.292 2.575-0.217-0.697 1.192-0.573-3.288-10.588-1.307 0.204-0.217-0.697 7.934-2.465 0.94 2.375-0.717 0.222-0.894-1.305-4.166 1.294 1.384 4.456 3.013-0.935-0.019-0.95 0.581-0.181 0.843 2.713zM190.397 261.957v0c0.665-0.269 1.379-0.405 2.144-0.408v0l-1.65-4.081-1.312 0.246-0.263-0.649 2.266-1.595 4.834 11.953c0.096 0.238 0.279 0.303 0.549 0.193 0.263-0.106 0.566-0.324 0.907-0.651v0l0.46 0.678c-0.593 0.699-1.077 1.125-1.453 1.277v0c-0.552 0.223-0.983 0.193-1.294-0.089v0c-0.11-0.109-0.199-0.248-0.267-0.417v0c-0.256 0.505-0.577 0.926-0.966 1.266-0.391 0.333-0.83 0.598-1.319 0.796-0.483 0.195-0.987 0.293-1.511 0.294-0.527-0.006-1.011-0.12-1.452-0.343v0c-0.861-0.432-1.539-1.263-2.036-2.492v0c-0.477-1.179-0.529-2.31-0.158-3.394v0c0.409-1.208 1.249-2.07 2.521-2.584zM193.28 269.085v0c0.539-0.218 1.099-0.736 1.68-1.555v0l-1.829-4.523c-0.704-0.423-1.554-0.433-2.551-0.03v0c-0.765 0.309-1.26 0.871-1.485 1.684v0c-0.207 0.769-0.123 1.618 0.252 2.546v0c0.34 0.84 0.83 1.448 1.471 1.823v0c0.714 0.412 1.534 0.43 2.462 0.055zM206.667 262.653l0.522 0.636c-0.39 0.611-0.752 0.999-1.085 1.165v0c-0.321 0.16-0.588 0.214-0.803 0.163v0c-0.384-0.073-0.649-0.254-0.794-0.545v0l-0.054-0.109c-0.251 0.587-0.571 1.082-0.958 1.487-0.39 0.399-0.761 0.686-1.112 0.862v0c-0.72 0.359-1.379 0.447-1.978 0.262-0.602-0.191-1.1-0.683-1.496-1.476v0l-2.103-4.211-0.994 0.304-0.339-0.681 1.888-1.623 2.791 5.591c0.23 0.46 0.565 0.738 1.007 0.835v0c0.36 0.07 0.718 0.016 1.075-0.163v0c0.575-0.287 1.041-0.709 1.398-1.265v0c0.163-0.248 0.294-0.509 0.39-0.784v0l-2.324-4.656-1.23 0.421-0.317-0.635 2.101-1.786 3.236 6.48c0.139 0.278 0.348 0.348 0.626 0.209v0c0.194-0.097 0.378-0.257 0.553-0.481zM213.681 257.584v0l0.712 0.226c-0.367 1.17-0.864 2.062-1.49 2.677v0c-0.142 0.132-0.292 0.244-0.448 0.337v0c-1.076 0.639-2.147 0.815-3.214 0.528v0c-1.039-0.28-1.88-0.96-2.522-2.042v0c-0.642-1.082-0.865-2.192-0.668-3.331v0c0.222-1.256 0.937-2.243 2.147-2.962v0c0.808-0.48 1.603-0.771 2.384-0.872v0l0.697 1.591-0.463 0.275c-0.293-0.494-0.776-0.632-1.449-0.414v0c-0.22 0.067-0.495 0.199-0.826 0.396-0.337 0.2-0.619 0.474-0.846 0.821-0.23 0.341-0.374 0.702-0.431 1.082v0c-0.107 0.748 0.057 1.488 0.492 2.22v0c0.535 0.901 1.184 1.491 1.947 1.77v0c0.822 0.298 1.608 0.225 2.359-0.221 0.75-0.445 1.29-1.139 1.619-2.081zM222.22 252.572l0.583 0.571c-0.445 0.828-0.821 1.349-1.127 1.561v0c-0.683 0.475-1.225 0.423-1.626-0.154v0l-0.157-0.225c0.003 0.146-0.077 0.416-0.24 0.81-0.163 0.393-0.3 0.682-0.411 0.866v0c-0.265 0.448-0.501 0.743-0.706 0.886-0.2 0.139-0.372 0.246-0.517 0.322-0.141 0.082-0.298 0.146-0.472 0.192-0.17 0.052-0.355 0.082-0.556 0.09-0.191 0.009-0.389-0.014-0.592-0.071v0c-0.447-0.134-0.841-0.445-1.18-0.934v0c-0.463-0.666-0.549-1.294-0.259-1.883v0c0.186-0.384 0.43-0.715 0.732-0.99 0.308-0.28 0.59-0.525 0.847-0.737v0c0.497-0.411 1.005-0.805 1.525-1.183v0l-1.03-1.483c-0.282-0.405-0.524-0.641-0.726-0.706v0c-0.338-0.119-0.69-0.051-1.057 0.203v0c-0.816 0.567-1.434 1.391-1.851 2.473v0l-0.837-0.333c0.59-1.497 1.318-2.547 2.185-3.149v0c0.755-0.525 1.438-0.686 2.047-0.484v0c0.468 0.152 0.909 0.526 1.322 1.12v0l2.576 3.707c0.243 0.35 0.447 0.501 0.611 0.452v0c0.056-0.014 0.123-0.048 0.201-0.102v0c0.183-0.127 0.422-0.4 0.715-0.819zM219.448 253.684l-0.973-1.4c-1.298 0.976-2.061 1.704-2.288 2.183v0c-0.173 0.367-0.132 0.734 0.123 1.101v0c0.367 0.528 0.798 0.71 1.294 0.546v0c0.134-0.044 0.282-0.122 0.442-0.234 0.167-0.116 0.337-0.279 0.512-0.491 0.165-0.213 0.306-0.431 0.423-0.652v0c0.23-0.415 0.386-0.766 0.467-1.053zM220.918 245.664l2.999 3.81c0.707 0.898 1.424 1.06 2.153 0.487v0c0.383-0.301 0.631-0.751 0.745-1.349v0l0.718 0.158c-0.136 0.615-0.309 1.121-0.52 1.52-0.215 0.393-0.448 0.688-0.698 0.885-0.244 0.192-0.525 0.328-0.843 0.405-0.312 0.074-0.625 0.07-0.938-0.01v0c-0.612-0.155-1.201-0.591-1.765-1.308v0l-2.943-3.739-0.853 0.672-0.464-0.59 0.696-0.871-0.715-0.908 0.169-1.425 0.295-0.232 1.343 1.706 2.224-1.751 0.621 0.789zM232.461 243.07v0l0.733 0.098c-0.142 1.213-0.464 2.179-0.966 2.898v0c-0.116 0.155-0.242 0.293-0.379 0.414v0c-0.946 0.829-1.977 1.207-3.094 1.134v0c-1.103-0.068-2.066-0.572-2.891-1.512v0c-0.825-0.941-1.252-1.987-1.282-3.139v0c-0.027-1.262 0.447-2.321 1.423-3.178v0c0.676-0.593 1.46-0.848 2.351-0.765v0c0.944 0.071 1.771 0.511 2.479 1.319v0l-0.064 0.543-3.942 3.996c0.697 0.774 1.499 1.177 2.408 1.208v0c0.809 0.019 1.51-0.232 2.105-0.753 0.595-0.522 0.968-1.276 1.119-2.263zM226.339 244.228v0l3.057-3.207c-0.659-0.69-1.364-0.94-2.114-0.749v0c-0.273 0.068-0.552 0.227-0.837 0.477-0.29 0.254-0.484 0.55-0.583 0.889-0.104 0.343-0.138 0.679-0.102 1.007v0c0.055 0.627 0.248 1.154 0.579 1.583zM232.262 233.731v0c0.501-0.513 1.101-0.924 1.8-1.234v0l-3.149-3.076-1.103 0.752-0.501-0.489 1.436-2.37 9.223 9.009c0.184 0.18 0.377 0.165 0.581-0.043 0.198-0.203 0.388-0.523 0.569-0.961v0l0.694 0.437c-0.262 0.878-0.535 1.462-0.818 1.752v0c-0.416 0.426-0.823 0.572-1.222 0.438v0c-0.144-0.056-0.281-0.147-0.412-0.275v0c-0.032 0.565-0.157 1.08-0.376 1.547-0.224 0.462-0.52 0.881-0.889 1.258-0.364 0.373-0.786 0.664-1.267 0.876-0.485 0.207-0.974 0.296-1.467 0.269v0c-0.962-0.051-1.917-0.539-2.865-1.466v0c-0.91-0.888-1.412-1.903-1.507-3.045v0c-0.111-1.271 0.314-2.397 1.273-3.379zM237.763 239.103v0c0.406-0.416 0.711-1.115 0.915-2.098v0l-3.491-3.409c-0.814-0.105-1.597 0.227-2.348 0.996v0c-0.576 0.59-0.805 1.303-0.685 2.138v0c0.119 0.788 0.537 1.531 1.253 2.231v0c0.648 0.633 1.341 0.993 2.079 1.08v0c0.819 0.091 1.578-0.222 2.277-0.938zM249.366 227.094l-2.782 3.67-0.582-0.442 0.631-1.151-8.836-6.697-0.938 0.918-0.582-0.441 2.556-3.371c1.471-1.94 2.933-2.783 4.387-2.53v0c0.539 0.095 1.081 0.348 1.625 0.761 0.544 0.413 0.959 0.867 1.245 1.364 0.281 0.502 0.433 1.041 0.454 1.617v0c0.053 1.195-0.443 2.482-1.489 3.861v0l-0.625 0.825 3.177 2.408 1.177-1.234zM239.535 220.367l-0.675 0.889 4.851 3.676 0.772-1.018c0.686-0.905 0.969-1.782 0.847-2.629v0c-0.118-0.751-0.549-1.409-1.292-1.973v0c-0.765-0.58-1.49-0.811-2.174-0.693v0c-0.769 0.13-1.546 0.712-2.329 1.748zM255.019 215.383v0l0.733-0.105c0.194 1.205 0.147 2.223-0.141 3.051v0c-0.069 0.181-0.153 0.348-0.252 0.502v0c-0.684 1.056-1.573 1.7-2.668 1.933v0c-1.079 0.235-2.144 0.013-3.193-0.668v0c-1.05-0.68-1.746-1.571-2.089-2.671v0c-0.37-1.207-0.202-2.355 0.504-3.445v0c0.489-0.755 1.174-1.214 2.053-1.377v0c0.928-0.188 1.843 0.01 2.746 0.595v0l0.086 0.539-2.706 4.92c0.881 0.555 1.763 0.724 2.646 0.506v0c0.783-0.201 1.39-0.634 1.821-1.298 0.43-0.664 0.584-1.491 0.46-2.482zM249.445 218.164v0l2.068-3.918c-0.822-0.485-1.568-0.533-2.239-0.145v0c-0.244 0.14-0.469 0.369-0.675 0.686-0.21 0.323-0.316 0.662-0.319 1.015-0.007 0.358 0.052 0.691 0.176 0.996v0c0.223 0.588 0.553 1.043 0.989 1.366zM257.359 213.44l-5.448-3.038-0.711 0.858-0.62-0.346 0.661-2.476 1.913 1.067c-0.637-1.857-0.794-3.075-0.471-3.655v0c0.267-0.478 0.702-0.808 1.307-0.99v0l0.997 1.067-0.193 0.345c-0.248-0.138-0.537-0.051-0.866 0.261v0c-0.089 0.09-0.161 0.185-0.217 0.286v0c-0.296 0.532-0.19 1.59 0.321 3.175v0l4.004 2.232 1.002-1.38 0.621 0.345-2.036 3.651-0.62-0.346zM259.304 206.54l0.196-0.401c1.076 0.525 1.934 0.132 2.575-1.181v0c0.243-0.498 0.325-0.951 0.246-1.358v0c-0.067-0.371-0.249-0.63-0.547-0.776v0c-0.322-0.157-0.61-0.2-0.863-0.128v0c-0.495 0.15-0.989 0.469-1.484 0.958-0.497 0.495-0.913 0.845-1.247 1.05-0.331 0.2-0.641 0.334-0.931 0.404v0c-0.492 0.129-0.938 0.095-1.339-0.101-0.407-0.199-0.701-0.437-0.882-0.713-0.181-0.277-0.302-0.584-0.362-0.922v0c-0.122-0.707-0.013-1.406 0.325-2.099v0c0.404-0.826 0.938-1.457 1.602-1.893v0l1.41 0.903-0.205 0.419c-0.808-0.395-1.475-0.054-2 1.021v0c-0.229 0.468-0.309 0.865-0.243 1.191 0.064 0.332 0.232 0.565 0.506 0.699v0c0.602 0.294 1.473-0.112 2.615-1.218v0c1.073-1.026 2.022-1.436 2.847-1.229v0c0.227 0.058 0.487 0.159 0.778 0.302 0.292 0.142 0.528 0.375 0.71 0.696 0.181 0.322 0.286 0.663 0.313 1.023v0c0.064 0.716-0.079 1.433-0.429 2.149v0c-0.344 0.705-0.8 1.299-1.367 1.782v0c-0.255 0.214-0.506 0.381-0.753 0.502v0zM260.87 199.34v0c-0.607-0.248-1.13-0.586-1.569-1.014-0.441-0.421-0.769-0.888-0.984-1.4v0c-0.468-1.053-0.48-2.125-0.034-3.214v0c0.514-1.258 1.292-2.088 2.331-2.487v0c0.99-0.384 2.061-0.341 3.213 0.129v0c1.29 0.527 2.179 1.336 2.668 2.427v0c0.472 1.062 0.485 2.138 0.04 3.228v0c-0.509 1.246-1.293 2.072-2.351 2.48v0c-1.001 0.394-2.106 0.345-3.314-0.149zM259.337 196.335c0.182 0.323 0.433 0.612 0.752 0.866 0.323 0.264 0.698 0.482 1.124 0.657 0.426 0.174 0.862 0.294 1.31 0.36 0.442 0.064 0.861 0.056 1.259-0.023v0c0.867-0.172 1.475-0.687 1.825-1.544v0c0.33-0.808 0.32-1.542-0.03-2.204v0c-0.34-0.651-0.952-1.156-1.835-1.517v0c-1.571-0.642-2.809-0.626-3.713 0.05v0c-0.336 0.25-0.597 0.603-0.784 1.06-0.184 0.451-0.262 0.865-0.234 1.241 0.029 0.377 0.137 0.728 0.326 1.054zM262.836 184.107v0c-0.262 0.832-0.235 1.759 0.081 2.78v0l5.486 1.728 0.52-0.974 0.677 0.213-1.082 3.435-0.677-0.213 0.142-1.126-5.95-1.874-0.529 1.003-0.677-0.213 0.11-2.443 1.064 0.335c-0.362-1.326-0.395-2.461-0.098-3.402v0c0.358-1.135 1.065-1.728 2.123-1.778v0c0.351-0.01 0.739 0.052 1.164 0.186v0l4.886 1.539 0.523-0.984 0.677 0.214-1.082 3.434-0.677-0.213 0.142-1.125-4.731-1.49c-1.084-0.341-1.781-0.019-2.092 0.968zM12.677 147.116c0-1.981 1.606-3.586 3.586-3.586 1.981 0 3.586 1.606 3.586 3.586 0 1.981-1.606 3.586-3.586 3.587-1.981 0-3.586-1.606-3.586-3.587zM268.052 147.116c0-1.981 1.606-3.586 3.586-3.586 1.981 0 3.586 1.606 3.586 3.586 0 1.981-1.606 3.586-3.586 3.587-1.981 0-3.586-1.606-3.586-3.587z" fill="#ca3433" data-fill-palette-color="primary"></path></svg></g></svg></g></svg></g></svg></g></svg><rect width="279.72" height="279.72" fill="none" stroke="none" visibility="hidden"></rect></g><defs></defs></svg>